<svg xmlns="http://www.w3.org/2000/svg" viewBox="0 0 64 64" width="64" height="64">
  <rect width="64" height="64" rx="12" fill="#0a0e17"/>
  <g transform="translate(8, 6) scale(0.75)">
    <path d="M32 4 L38 8 L42 6 L48 10 L52 8 L56 12 L60 16 L58 22 L62 28 L60 34 L56 38 L58 44 L54 48 L50 46 L46 50 L42 52 L38 56 L34 54 L30 58 L26 56 L22 52 L18 54 L14 50 L10 46 L8 42 L4 38 L6 32 L4 26 L8 22 L6 16 L10 12 L14 8 L18 6 L22 8 L26 6 L30 4Z"
      fill="none"
      stroke="#00d4ff"
      stroke-width="2.5"
      stroke-linejoin="round"
    />
    <circle cx="36" cy="34" r="3" fill="#ff3333" opacity="0.9"/>
    <text x="36" y="44" text-anchor="middle" font-size="5" fill="#00d4ff" font-family="monospace" opacity="0.7">HYD</text>
  </g>
</svg>
